Coordinates
version=1
nRows=38
nColumns=12
inDegrees=yes

Units are S.I. units (second, meters, Newtons, ...)
Angles are in degrees

endheader
time	SC_y	SC_z	SC_x	AC_y	AC_z	AC_x	GH_y	GH_z	GH_yy	EL_x	PS_y
       0.0              -25.57          11.74          73.12          39.63         -10.86           12.0          161.4          40.46          2.747          10.59          97.39
   0.04292              -25.56          11.74          73.12          39.63         -10.85           12.0          161.4          40.47          2.736          10.59          97.39
   0.08584              -25.56          11.74          73.11          39.64         -10.85           12.0          161.4          40.47          2.725          10.59          97.39
    0.1288              -25.56          11.74          73.11          39.64         -10.85           12.0          161.4          40.48          2.713          10.58          97.38
    0.1717              -25.56          11.74          73.11          39.65         -10.85           12.0          161.4          40.49          2.701          10.58          97.38
    0.2146              -25.55          11.74          73.11          39.65         -10.85           12.0          161.4          40.49          2.687          10.58          97.38
    0.2575              -25.55          11.74          73.11          39.66         -10.85           12.0          161.4           40.5          2.673          10.58          97.38
    0.3005              -25.55          11.74           73.1          39.67         -10.84          11.99          161.4          40.51          2.657          10.58          97.37
    0.3434              -25.55          11.74           73.1          39.67         -10.84          11.99          161.4          40.52          2.641          10.58          97.37
    0.3863              -25.54          11.74           73.1          39.68         -10.84          11.99          161.4          40.53          2.623          10.58          97.37
    0.4292              -25.54          11.74           73.1          39.69         -10.84          11.99          161.4          40.54          2.604          10.58          97.36
    0.4721              -25.54          11.74          73.09          39.69         -10.83          11.99          161.4          40.55          2.584          10.58          97.36
    0.5151              -25.53          11.74          73.09           39.7         -10.83          11.99          161.4          40.56          2.562          10.57          97.35
     0.558              -25.53          11.74          73.09          39.71         -10.83          11.98          161.4          40.57          2.538          10.57          97.35
    0.6009              -25.52          11.74          73.08          39.72         -10.82          11.98          161.4          40.59          2.512          10.57          97.34
    0.6438              -25.52          11.74          73.08          39.73         -10.82          11.98          161.4           40.6          2.484          10.57          97.34
    0.6868              -25.51          11.74          73.07          39.75         -10.82          11.98          161.4          40.62          2.454          10.57          97.33
    0.7297               -25.5          11.74          73.07          39.76         -10.81          11.98          161.4          40.63          2.421          10.56          97.33
    0.7726               -25.5          11.74          73.06          39.77         -10.81          11.97          161.4          40.65          2.385          10.56          97.32
    0.8155              -25.49          11.74          73.06          39.79          -10.8          11.97          161.4          40.67          2.345          10.56          97.31
    0.8584              -25.48          11.74          73.05           39.8          -10.8          11.97          161.4           40.7          2.302          10.55           97.3
    0.9014              -25.47          11.74          73.05          39.82         -10.79          11.96          161.4          40.72          2.254          10.55          97.29
    0.9443              -25.46          11.74          73.04          39.84         -10.78          11.96          161.4          40.75          2.201          10.55          97.28
    0.9872              -25.45          11.75          73.03          39.87         -10.77          11.95          161.4          40.78          2.143          10.54          97.27
      1.03              -25.44          11.75          73.02          39.89         -10.76          11.95          161.4          40.81          2.078          10.54          97.26
     1.073              -25.43          11.75          73.01          39.92         -10.75          11.94          161.4          40.85          2.005          10.53          97.24
     1.116              -25.41          11.75           73.0          39.95         -10.74          11.94          161.3          40.89          1.924          10.53          97.22
     1.159              -25.39          11.75          72.98          39.99         -10.73          11.93          161.3          40.94          1.833          10.52          97.21
     1.202              -25.38          11.75          72.97          40.03         -10.72          11.92          161.3          40.99          1.729          10.51          97.18
     1.245              -25.35          11.75          72.95          40.07          -10.7          11.91          161.3          41.06          1.612           10.5          97.16
     1.288              -25.33          11.76          72.93          40.13         -10.68           11.9          161.3          41.13          1.478          10.49          97.13
     1.331               -25.3          11.76          72.91          40.19         -10.66          11.89          161.3          41.21          1.325          10.48           97.1
     1.374              -25.27          11.76          72.88          40.26         -10.64          11.87          161.3           41.3          1.148          10.47          97.07
     1.416              -25.23          11.76          72.85          40.34         -10.61          11.86          161.3          41.41         0.9415          10.45          97.02
     1.459              -25.18          11.77          72.82          40.43         -10.58          11.84          161.3          41.53         0.7005          10.44          96.97
     1.502              -25.13          11.77          72.77          40.54         -10.54          11.82          161.3          41.68         0.4163          10.42          96.92
     1.545              -25.07          11.78          72.72          40.67         -10.49          11.79          161.2          41.86        0.07866          10.39          96.85
     1.588              -24.99          11.78          72.66          40.83         -10.44          11.76          161.2          42.07        -0.3261          10.36          96.77
